<svg height="24" fill="#b4befe" viewBox="0 0 24 24" width="24" xmlns="http://www.w3.org/2000/svg"><path d="M22.768 14.161h-2.753a.393.393 0 0 0 0 .787h1.804l-6.917 6.917-1.984-1.984a.393.393 0 0 0-.545-.01l-2.377 2.201-1.4-1.4a.393.393 0 0 0-.556.556l1.668 1.668a.4.4 0 0 0 .278.115.4.4 0 0 0 .267-.105l2.377-2.201 1.994 1.994a.393.393 0 0 0 .556 0l7.195-7.195v1.804a.393.393 0 0 0 .787 0v-2.753a.393.393 0 0 0-.393-.393M8.805 12.785h5.9a.393.393 0 0 0 .393-.393V7.869a.79.79 0 0 0-.787-.787h-2.162a.2.2 0 0 1-.001.076v-.862a.79.79 0 0 0-.787-.787H9.198a.79.79 0 0 0-.787.787v2.948H6.248a.79.79 0 0 0-.787.787v2.36a.393.393 0 0 0 .393.393zm3.344-4.917h2.163v4.13h-2.163zm-2.95-1.573h2.163v5.704H9.199zm-2.95 3.737h2.163v1.967H6.249z"/><path d="M10.377 16.717c4.013 0 7.277-3.264 7.277-7.277s-3.264-7.277-7.277-7.277S3.1 5.428 3.1 9.44s3.264 7.277 7.277 7.277m0-13.767a6.497 6.497 0 0 1 6.49 6.49c0 3.579-2.912 6.49-6.49 6.49s-6.49-2.911-6.49-6.49a6.497 6.497 0 0 1 6.49-6.49"/><path d="M2.215 23.632A2.74 2.74 0 0 0 3.587 24c.952 0 1.88-.494 2.389-1.376l2.298-3.98a9.4 9.4 0 0 0 2.103.236c5.205 0 9.44-4.235 9.44-9.44S15.583 0 10.377 0 .937 4.235.937 9.44c0 2.497.975 4.77 2.563 6.46l-2.292 3.97a2.756 2.756 0 0 0 1.008 3.761M10.377.787c4.772 0 8.654 3.882 8.654 8.654s-3.882 8.654-8.654 8.654-8.654-3.883-8.654-8.655S5.605.786 10.377.786M1.889 20.264l2.192-3.796a9.45 9.45 0 0 0 3.41 1.961l-2.195 3.802a1.97 1.97 0 0 1-2.687.72 1.97 1.97 0 0 1-.72-2.687"/></svg>