<svg height="24" viewBox="0 0 3 3" fill="#b4befe" width="24" xmlns="http://www.w3.org/2000/svg" data-name="Layer 1"><path d="M2.218.759a.047.047 0 0 0-.066 0l-.632.613a.047.047 0 0 0 .066.068l.631-.614A.047.047 0 0 0 2.218.76"/><path d="M2.561 1.237h-.074a.06.06 0 0 1-.057-.041 1 1 0 0 0-.083-.184l.289-.285a.225.225 0 0 0 0-.317L2.562.338a.22.22 0 0 0-.158-.065.22.22 0 0 0-.158.066l-.291.287a1 1 0 0 0-.167-.074.06.06 0 0 1-.04-.057V.422a.154.154 0 0 0-.154-.154h-.263a.154.154 0 0 0-.154.154v.074a.06.06 0 0 1-.041.057 1 1 0 0 0-.13.054.06.06 0 0 1-.068-.011L.886.544a.155.155 0 0 0-.218 0L.483.729a.154.154 0 0 0 0 .218l.052.052a.06.06 0 0 1 .012.069 1 1 0 0 0-.053.13.06.06 0 0 1-.057.041H.361a.154.154 0 0 0-.154.154v.261a.154.154 0 0 0 .154.154h.074a.06.06 0 0 1 .057.041 1 1 0 0 0 .054.13.06.06 0 0 1-.012.069L.482 2.1a.15.15 0 0 0-.047.109.16.16 0 0 0 .047.109l.185.185a.155.155 0 0 0 .218 0l.053-.053a.06.06 0 0 1 .068-.012 1 1 0 0 0 .13.053.06.06 0 0 1 .041.057v.074a.154.154 0 0 0 .154.154h.263a.154.154 0 0 0 .155-.154v-.073a.06.06 0 0 1 .04-.057 1 1 0 0 0 .128-.054.06.06 0 0 1 .068.012l.052.052a.155.155 0 0 0 .218 0l.185-.185a.155.155 0 0 0 0-.218l-.049-.052a.06.06 0 0 1-.012-.069 1 1 0 0 0 .054-.13.06.06 0 0 1 .057-.041h.074a.154.154 0 0 0 .154-.154v-.261a.154.154 0 0 0-.156-.154m-.422.064a.715.715 0 1 1-.678-.494.7.7 0 0 1 .26.049l-.563.558-.013.022-.107.427a.05.05 0 0 0 .012.047.05.05 0 0 0 .033.014h.011l.432-.106a.04.04 0 0 0 .022-.012l.57-.563zm-.924.237.207.205-.275.068zm.3.165-.258-.255.93-.919.258.255zM2.407.368a.13.13 0 0 1 .094.038l.072.072a.13.13 0 0 1 0 .185L2.515.72l-.26-.255.058-.057A.13.13 0 0 1 2.405.37zm.218 1.286a.06.06 0 0 1-.06.06h-.076a.15.15 0 0 0-.145.104 1 1 0 0 1-.047.118.15.15 0 0 0 .029.177l.052.052a.06.06 0 0 1 0 .086l-.188.187a.06.06 0 0 1-.086 0l-.052-.052a.15.15 0 0 0-.177-.031 1 1 0 0 1-.118.047.15.15 0 0 0-.105.146v.074a.06.06 0 0 1-.058.061h-.263a.06.06 0 0 1-.06-.06v-.074a.15.15 0 0 0-.105-.146 1 1 0 0 1-.118-.047.15.15 0 0 0-.177.029l-.052.053a.06.06 0 0 1-.086 0L.548 2.25a.06.06 0 0 1-.018-.043.06.06 0 0 1 .018-.043L.6 2.112a.15.15 0 0 0 .029-.177 1 1 0 0 1-.047-.118.15.15 0 0 0-.146-.105H.361a.06.06 0 0 1-.06-.06v-.261a.06.06 0 0 1 .06-.06h.074a.15.15 0 0 0 .146-.105 1 1 0 0 1 .047-.119.15.15 0 0 0-.029-.176L.549.879a.06.06 0 0 1 0-.086L.733.609a.06.06 0 0 1 .086 0l.052.052a.15.15 0 0 0 .177.029 1 1 0 0 1 .118-.047.15.15 0 0 0 .105-.146V.422a.06.06 0 0 1 .06-.06h.263a.06.06 0 0 1 .059.06v.074a.15.15 0 0 0 .105.146 1 1 0 0 1 .127.054l-.09.089a.8.8 0 0 0-.332-.071.807.807 0 1 0 .768.559 1 1 0 0 0-.043-.103l.089-.088a1 1 0 0 1 .066.145.15.15 0 0 0 .146.105h.074a.06.06 0 0 1 .06.06z"/></svg>