<svg height="24" fill="#b4befe" viewBox="10.082 4.313 75.836 87.375" width="24" xmlns="http://www.w3.org/2000/svg"><path d="M48.517 91.688h-1.033a8 8 0 0 1-2.821-.51c-9.955-3.725-17.955-9.761-23.776-17.941-4.571-6.424-7.742-14.103-9.424-22.824-2.774-14.385-.528-26.854-.431-27.378a8.03 8.03 0 0 1 4.812-5.962L44.897 4.935A8 8 0 0 1 48 4.313c1.071 0 2.115.209 3.103.622l29.053 12.138a8.03 8.03 0 0 1 4.812 5.962c.097.524 2.343 12.995-.431 27.378-1.682 8.721-4.852 16.4-9.424 22.824-5.821 8.18-13.821 14.217-23.776 17.941a8 8 0 0 1-2.82.51M48 7.313a5 5 0 0 0-1.946.39L17.001 19.84a5.03 5.03 0 0 0-3.019 3.74c-.093.501-2.241 12.429.427 26.264 1.6 8.296 4.602 15.581 8.922 21.653 5.468 7.684 12.999 13.36 22.383 16.871a5 5 0 0 0 1.769.32h1.033c.606 0 1.202-.108 1.769-.32 9.384-3.511 16.915-9.187 22.383-16.871 4.321-6.071 7.323-13.356 8.922-21.653 2.667-13.833.519-25.763.427-26.264a5.03 5.03 0 0 0-3.019-3.74L49.945 7.702A5 5 0 0 0 48 7.313"/><path d="M48.517 85.138h-1.033c-.179 0-.358-.032-.526-.095-8.709-3.258-15.685-8.508-20.735-15.604-4.024-5.654-6.826-12.473-8.329-20.267-1.329-6.89-1.375-13.29-1.18-17.445.212-4.515.736-7.38.758-7.5a1.5 1.5 0 0 1 .897-1.111l29.053-12.138a1.5 1.5 0 0 1 1.156 0l29.053 12.138a1.5 1.5 0 0 1 .897 1.111c.022.12.546 2.985.758 7.5.195 4.155.149 10.555-1.18 17.445-1.503 7.794-4.305 14.612-8.329 20.267-5.05 7.096-12.026 12.346-20.735 15.604a1.5 1.5 0 0 1-.525.095m-.76-3h.486c14.645-5.568 23.7-16.849 26.917-33.534 2.063-10.699.946-20.29.543-23.042L48 13.988 20.296 25.562a65 65 0 0 0-.589 6.397c-.183 3.994-.132 10.139 1.15 16.733 3.233 16.638 12.282 27.889 26.9 33.446"/><path d="M55.23 66.568H40.77c-3.883 0-7.042-3.159-7.042-7.043v-11.75c0-3.883 3.159-7.043 7.042-7.043h14.459c3.883 0 7.042 3.159 7.042 7.043v11.75c0 3.883-3.159 7.043-7.042 7.043M40.77 43.733a4.046 4.046 0 0 0-4.042 4.042v11.75a4.046 4.046 0 0 0 4.042 4.042h14.459a4.047 4.047 0 0 0 4.042-4.042v-11.75a4.046 4.046 0 0 0-4.042-4.042zM48 55.443a4.16 4.16 0 0 1-4.156-4.156A4.16 4.16 0 0 1 48 47.131a4.16 4.16 0 0 1 4.156 4.156A4.16 4.16 0 0 1 48 55.443m0-5.312c-.637 0-1.156.519-1.156 1.156s.519 1.156 1.156 1.156 1.156-.519 1.156-1.156c0-.638-.519-1.156-1.156-1.156"/><path d="M57.341 43.734a1.5 1.5 0 0 1-1.5-1.5v-4.595c0-4.324-3.517-7.841-7.841-7.841s-7.841 3.518-7.841 7.841v4.594a1.5 1.5 0 0 1-3 0v-4.594c0-2.896 1.128-5.618 3.175-7.666s4.77-3.175 7.666-3.175 5.618 1.128 7.666 3.175 3.175 4.77 3.175 7.666v4.594a1.5 1.5 0 0 1-1.5 1.5M48 59.92a1.5 1.5 0 0 1-1.5-1.5v-4.477a1.5 1.5 0 0 1 3 0v4.477a1.5 1.5 0 0 1-1.5 1.5"/></svg>