<?xml version="1.0" standalone="no"?><svg xmlns="http://www.w3.org/2000/svg" viewBox="0 0 1440 320"><path fill="#11111b" fill-opacity="1" d="M0,128L48,154.7C96,181,192,235,288,250.7C384,267,480,245,576,208C672,171,768,117,864,101.3C960,85,1056,107,1152,122.7C1248,139,1344,149,1392,154.7L1440,160L1440,320L1392,320C1344,320,1248,320,1<?xml version="1.0" standalone="no"?><svg xmlns="http://www.w3.org/2000/svg" viewBox="0 0 1440 320"><path fill="#11111b" fill-opacity="1" d="M0,128L48,154.7C96,181,192,235,288,250.7C384,267,480,245,576,208C672,171,768,117,864,101.3C960,85,1056,107,1152,122.7C1248,139,1344,149,1392,154.7L1440,160L1440,320L1392,320C1344,320,1248,320,1152,320C1056,320,960,320,864,320C768,320,672,320,576,320C480,320,384,320,288,320C192,320,96,320,48,320L0,320Z"></path></svg>"></path></svg>